<svg width="22" height="20" fill="none" xmlns="http://www.w3.org/2000/svg"><path d="M21.546 3.645H8.717c-.417 0-.655.315-.531.705l2.03 5.813c.1.313.453.567.789.567h8.41c.337 0 .69-.254.79-.567l1.768-5.95c.1-.313-.09-.568-.427-.568ZM9.877 19.303c1.06 0 1.92-.84 1.92-1.877 0-1.036-.86-1.876-1.92-1.876s-1.919.84-1.919 1.876c0 1.037.86 1.877 1.92 1.877Zm8.121.023c1.06 0 1.919-.84 1.919-1.876s-.86-1.876-1.92-1.876-1.918.84-1.918 1.876.859 1.876 1.919 1.876Z" fill="#000"/><path d="M20.302 12.64H9.078L4.585 0H1.087C.487 0 0 .476 0 1.062c0 .587.486 1.063 1.087 1.063H3.04l4.493 12.64h12.769c.6 0 1.087-.476 1.087-1.063 0-.586-.487-1.062-1.087-1.062Z" fill="#000"/></svg>