<svg xmlns="http://www.w3.org/2000/svg" viewBox="0.7 0.5 1000 1000" xml:space="preserve"><path d="M500.7 240.4c-141.1 0-258 114.9-258 258.1-.4 142.1 114.4 257.6 256.5 258h1.5c143.2 0 258.1-116.9 258.1-258S641.9 240.3 500.7 240.4zm0 423.3c-90.7 0-165.3-74.6-165.3-165.3 0-90.7 74.6-165.3 165.3-165.3 90.7 0 165.3 74.6 165.3 165.3 0 90.7-74.6 165.4-165.3 165.3zm268.2-370.9c32.3 0 58.5-26.2 58.5-58.5s-26.2-58.5-58.5-58.5-58.5 26.2-58.5 58.5 26.2 58.5 58.5 58.5z"/><path d="M920.1 83.1C867.7 28.7 793 .5 708.4.5H293C117.6.5.7 117.4.7 292.8v413.3c0 86.7 28.2 161.3 84.7 215.7 54.4 52.4 127 78.6 209.7 78.6h411.2c86.7 0 159.3-28.2 211.7-78.6 54.4-52.4 82.7-127 82.7-213.7V292.8c0-84.7-28.2-157.3-80.6-209.7zm-8.1 625c0 62.5-22.2 112.9-58.5 147.2-36.3 34.3-86.7 52.4-147.2 52.4H295c-60.5 0-110.9-18.1-147.2-52.4-36.3-36.3-54.4-86.7-54.4-149.2V292.8c0-60.5 18.1-110.9 54.4-147.2 34.3-34.3 86.7-52.4 147.2-52.4h415.4c60.5 0 110.9 18.1 147.2 54.4 34.3 36.3 54.4 86.7 54.4 145.2v415.3z"/></svg>