<svg width="27" height="26" fill="none" xmlns="http://www.w3.org/2000/svg"><path d="M13.423 6.541c-3.58 0-6.546 2.915-6.546 6.547a6.527 6.527 0 0 0 6.546 6.546c3.632 0 6.547-2.966 6.547-6.546S17.004 6.54 13.423 6.54Zm0 10.74c-2.301 0-4.194-1.892-4.194-4.193 0-2.302 1.893-4.194 4.194-4.194 2.302 0 4.194 1.892 4.194 4.194 0 2.301-1.892 4.194-4.194 4.194Zm6.803-9.409a1.483 1.483 0 1 0 0-2.967 1.483 1.483 0 0 0 0 2.967Z" fill="#000"/><path d="M24.062 2.552c-1.33-1.38-3.223-2.097-5.37-2.097H8.154C3.705.455.74 3.422.74 7.871v10.485c0 2.2.716 4.092 2.148 5.473 1.381 1.33 3.222 1.995 5.32 1.995H18.64c2.2 0 4.04-.716 5.37-1.995 1.381-1.33 2.098-3.222 2.098-5.422V7.871c0-2.148-.716-3.99-2.046-5.319Zm-.205 15.855c0 1.586-.563 2.865-1.483 3.734-.92.87-2.2 1.33-3.734 1.33H8.206c-1.534 0-2.813-.46-3.733-1.33-.921-.92-1.381-2.2-1.381-3.785V7.871c0-1.534.46-2.813 1.38-3.733.87-.87 2.2-1.33 3.734-1.33h10.537c1.534 0 2.813.46 3.733 1.38.87.921 1.381 2.2 1.381 3.683v10.536Z" fill="#000"/></svg>