<svg xmlns="http://www.w3.org/2000/svg" viewBox="483.5 400 1033.5 1199" xml:space="preserve"><path d="M1034.5 400h200c2.1 8.7 3.8 17.6 5 26.5 12.6 144.1 132.8 255 277.5 256V871c-9.4 3-19.2 4.4-29 4-46.5-5.1-92.6-13.5-138-25-39.2-15.1-77.2-32.8-114-53v329.5c.5 41.3-2.2 82.6-8 123.5-17.8 138.8-106.4 258.4-234 316-36.9 13.6-74.6 24.6-113 33h-69.5c-2.9-1.4-5.9-2.6-9-3.5-144.1-18.3-262.7-122.1-300-262.5-8.4-29.9-14.7-60.3-19-91v-58.5c5.5-27.5 9.5-55 17.5-82 46.1-147.5 177-252.3 331-265 22.5-3.5 45-4.5 69-6.5v185.5c0 14.5-7.5 16.5-19.5 20-38.3 8.8-75.9 20.5-112.5 35-57.7 21.7-95.5 77.4-94.5 139-4.3 69.7 33.5 135.3 96 166.5 57.2 35.4 130.1 32.6 184.5-7 40.2-28.8 66.4-73.3 72-122.5 6-49.8 8.5-99.9 7.5-150V430c1.5-10.5.5-20 0-30z"/></svg>