<svg width="163" height="82" viewBox="0 0 163 82" fill="none" xmlns="http://www.w3.org/2000/svg">
<g clip-path="url(#clip0_12_2)">
<g clip-path="url(#clip1_12_2)">
<path d="M16.5099 41.3125C16.056 40.9716 15.3185 40.8579 14.2973 40.8579C13.2193 40.8579 12.4817 41.0284 12.0278 41.3125C11.574 41.5967 11.347 42.0513 11.2336 42.5059C11.1201 43.0173 11.1201 43.4719 11.1201 43.9834V61.9404C11.1201 62.4518 11.1768 62.9633 11.2336 63.4747C11.347 63.9861 11.574 64.3839 12.0278 64.6681C12.4817 65.009 13.2193 65.1227 14.2405 65.1227C15.3185 65.1227 16.056 64.9522 16.5099 64.6681C16.9638 64.3839 17.1907 63.9293 17.3042 63.4747C17.4177 62.9633 17.4177 62.5087 17.4177 61.9972V44.0402C17.4177 43.5288 17.3609 43.0173 17.3042 42.5059C17.1907 41.9945 16.9071 41.5967 16.5099 41.3125Z" fill="#E7AAB5"/>
<path d="M40.7926 48.5294C40.3387 48.3021 39.7146 48.3021 38.8068 48.4726L32.9064 49.8364C32.5092 49.9501 32.1688 50.0638 31.7717 50.1774C31.4313 50.3479 31.1476 50.632 30.9774 51.0298C30.8072 51.4276 30.8072 52.1095 31.0341 52.9619C31.2611 53.8143 31.488 54.4394 31.7717 54.7235C32.0554 55.0076 32.3958 55.1781 32.7929 55.1781C33.1901 55.1781 33.5872 55.1213 33.9843 55.0076L36.4807 54.4394L37.1615 57.3375C36.8778 57.508 36.5942 57.6784 36.197 57.8489C35.8566 58.0194 35.4595 58.1331 35.0623 58.2467C34.6652 58.3604 34.268 58.474 33.8709 58.5308C32.8496 58.7581 31.8284 58.7013 30.8072 58.3035C29.7859 57.9057 28.8782 57.3375 28.1406 56.5419C27.4031 55.7464 26.8925 54.7803 26.6088 53.6438C26.3818 52.5641 26.3818 51.5412 26.7222 50.5184C27.0627 49.4955 27.5733 48.6431 28.3676 47.9612C29.1051 47.2793 30.0696 46.7678 31.0909 46.5405C31.6582 46.4269 32.2256 46.3701 32.7929 46.3701C33.3603 46.3701 33.8141 46.4269 34.268 46.4837C34.6652 46.5405 34.9488 46.5974 35.119 46.6542C35.6297 46.8247 36.0268 46.9383 36.3105 46.9951C36.5942 47.052 36.8778 47.052 37.1048 46.9951C37.5019 46.8815 37.8423 46.6542 38.2395 46.3132C38.5799 45.9155 38.9203 45.404 39.204 44.6653C39.3742 44.2675 39.4876 43.8697 39.5444 43.5288C39.6011 43.1878 39.6011 42.8468 39.5444 42.6195C39.4309 42.0513 39.1472 41.6535 38.6366 41.4262C38.1827 41.1421 37.6721 40.9148 37.1048 40.6875C36.424 40.4033 35.6297 40.2328 34.7786 40.1192C33.9276 40.0055 33.0766 40.0055 32.1688 40.0624C31.3178 40.1192 30.5235 40.2328 29.7859 40.4033C28.1406 40.8011 26.6088 41.483 25.3039 42.3922C23.999 43.3583 22.8643 44.4948 22.0132 45.8586C21.1622 47.2224 20.5381 48.6999 20.2544 50.2342C19.9708 51.8254 19.9708 53.4165 20.3679 55.0644C20.7651 56.7692 21.4459 58.3035 22.4104 59.7242C23.3749 61.088 24.5663 62.2245 25.928 63.1337C27.2896 64.043 28.7647 64.668 30.3533 64.9522C31.9419 65.2931 33.5305 65.2363 35.1758 64.8953C36.0835 64.668 36.9346 64.4407 37.6721 64.1566C38.4664 63.8725 39.1472 63.5315 39.8281 63.1906C40.5089 62.8496 41.0762 62.4518 41.5301 62.054C42.3244 61.3721 42.9485 60.6334 43.3456 59.8378C43.7428 59.0423 43.8563 58.3604 43.6861 57.6784L42.0975 50.7457C41.984 50.2911 41.8705 49.8364 41.6436 49.4387C41.5301 49.0409 41.2464 48.7568 40.7926 48.5294Z" fill="#17C5CE"/>
<path d="M64.8483 59.9515L62.6356 56.3714C63.0895 56.0305 63.5433 55.6895 63.9405 55.2918C64.6213 54.6098 65.1319 53.8143 65.5291 52.9051C65.9262 51.9958 66.1532 51.0298 66.2099 49.9501C66.3234 48.4158 66.1532 47.1088 65.6425 45.9155C65.1319 44.7789 64.5078 43.7561 63.6568 42.9605C62.8058 42.1649 61.898 41.5398 60.9335 41.0852C59.969 40.6306 59.0045 40.4033 58.1535 40.3465L51.1751 39.8351C50.0971 39.7782 49.3596 39.8351 48.9057 40.1192C48.4518 40.4033 48.1681 40.8011 47.9979 41.2557C47.8845 41.7103 47.771 42.2218 47.771 42.7332L46.4093 60.6334C46.3526 61.1448 46.3526 61.6563 46.4093 62.1677C46.4661 62.6791 46.693 63.0769 47.0902 63.4179C47.4873 63.7588 48.2249 63.9861 49.2461 64.043C50.3241 64.0998 51.0616 64.043 51.5155 63.7588C51.9694 63.4747 52.2531 63.0769 52.4233 62.6223C52.5367 62.1677 52.6502 61.6563 52.6502 61.1448L52.9339 57.7921L56.1678 58.0194L59.4584 63.3042C60.0825 64.2703 60.7066 64.8954 61.2739 65.0658C61.8413 65.2363 62.6923 65.009 63.827 64.3271C64.5646 63.8725 65.0752 63.4179 65.3589 63.0201C65.6425 62.6223 65.756 62.1677 65.6425 61.7131C65.4723 61.2585 65.2454 60.6334 64.8483 59.9515ZM53.7849 46.3701L57.5294 46.6542C57.9833 46.711 58.3805 46.8247 58.7776 47.1088C59.118 47.3361 59.4017 47.6771 59.6286 48.0748C59.8556 48.4726 59.9123 48.9272 59.8556 49.3818C59.7988 49.8933 59.6854 50.2911 59.5152 50.5752C59.3449 50.8593 59.0613 51.1435 58.8343 51.3139C58.5507 51.4844 58.267 51.5981 57.9833 51.6549C57.6996 51.7117 57.416 51.7117 57.2458 51.7117L53.4445 51.4276L53.7849 46.3701Z" fill="#F96419"/>
<path d="M82.0957 43.6992C81.8688 43.3015 81.6419 43.0173 81.3014 42.7332C80.961 42.4491 80.6206 42.2786 80.2802 42.1649C79.9398 42.0513 79.5426 41.9945 79.0888 41.9945C78.5214 41.9945 77.9541 42.2218 77.4435 42.5627C76.9328 42.9037 76.5357 43.4151 76.252 43.9834L68.4226 62.4518C68.0822 63.1906 67.9687 63.7588 67.9687 64.2703C67.9687 64.7817 68.1389 65.1795 68.4793 65.5204C68.8197 65.8614 69.3871 66.2024 70.1246 66.5433C71.2593 66.9979 72.1104 67.1684 72.6777 66.9411C73.2451 66.7138 73.8124 66.0319 74.323 64.9522L75.7414 61.5426L84.2517 61.1448L86.0105 64.3839C86.5778 65.4636 87.2019 66.1455 87.826 66.316C88.4501 66.4865 89.3011 66.2592 90.3791 65.6909C91.0599 65.2931 91.5705 64.8954 91.9109 64.4976C92.1946 64.0998 92.3648 63.702 92.3081 63.1906C92.2513 62.6791 92.0244 62.1109 91.684 61.429L82.0957 43.6992ZM78.181 55.9168L79.6561 52.4505L81.4717 55.7464L78.181 55.9168Z" fill="#EAA347"/>
<path d="M115.853 62.736C116.25 62.395 116.477 61.9404 116.534 61.4858C116.591 60.9744 116.591 60.5198 116.534 60.0083L114.605 42.1649C114.548 41.6535 114.435 41.1421 114.321 40.6875C114.151 40.2329 113.867 39.8351 113.414 39.5509C112.96 39.2668 112.222 39.21 111.144 39.3236C110.123 39.4373 109.385 39.6646 108.988 40.0055C108.591 40.3465 108.364 40.7443 108.307 41.2557C108.251 41.7103 108.251 42.2218 108.307 42.7332L109.385 52.6778L99.5134 41.9945C99.173 41.6535 98.8326 41.3694 98.4354 41.1421C98.0383 40.9148 97.3575 40.8579 96.3362 40.9716C95.315 41.0852 94.5775 41.3125 94.1803 41.6535C93.7832 41.9945 93.5562 42.3922 93.4995 42.9037C93.4428 43.3583 93.4428 43.8697 93.4995 44.3812L95.4285 62.3382C95.4852 62.8496 95.5987 63.3611 95.7122 63.8157C95.8824 64.2703 96.166 64.6681 96.6199 64.8954C97.0738 65.1795 97.8114 65.2363 98.8326 65.1227C99.9106 65.009 100.648 64.7817 101.045 64.4408C101.442 64.0998 101.669 63.6452 101.726 63.1906C101.783 62.6791 101.783 62.2245 101.726 61.7131L100.705 52.1095L110.917 62.9633C111.258 63.3042 111.598 63.5315 111.995 63.5884C112.392 63.6452 113.016 63.6452 113.811 63.5884C114.718 63.3611 115.456 63.1338 115.853 62.736Z" fill="#17C5CE"/>
<path d="M119.427 36.0845C118.236 36.255 117.442 36.5391 117.045 37.0506C116.647 37.5052 116.534 38.3576 116.704 39.5509C116.874 40.7443 117.158 41.5398 117.669 41.9376C118.123 42.3354 118.974 42.4491 120.165 42.2786C121.356 42.1081 122.151 41.824 122.548 41.3125C122.945 40.8011 123.058 40.0055 122.888 38.7554C122.718 37.562 122.434 36.8233 121.981 36.4255C121.413 36.0845 120.619 35.9709 119.427 36.0845Z" fill="#17C5CE"/>
<path d="M122.775 45.5177C122.321 45.2335 121.583 45.1767 120.562 45.2904C119.541 45.404 118.86 45.6313 118.463 45.9723C118.066 46.3132 117.839 46.711 117.782 47.1656C117.725 47.6202 117.782 48.0748 117.839 48.5295L119.484 61.7699C119.541 62.3382 119.541 62.7928 119.371 63.1906C119.257 63.5315 119.03 63.8725 118.803 64.043C118.576 64.2703 118.293 64.4408 118.066 64.4976C117.782 64.6112 117.555 64.6681 117.385 64.6681C116.874 64.7249 116.42 64.8385 115.967 65.009C115.513 65.1795 115.172 65.4636 114.889 65.9751C114.605 66.4297 114.548 67.1684 114.662 68.1344C114.775 69.1573 115.059 69.896 115.399 70.2938C115.74 70.6916 116.194 70.9189 116.647 70.9189C117.101 70.9757 117.612 70.9189 118.066 70.8621C119.03 70.7484 119.995 70.4643 120.959 69.9529C121.924 69.4414 122.775 68.8164 123.569 67.964C124.307 67.1116 124.931 66.1455 125.328 65.009C125.725 63.8725 125.839 62.6223 125.668 61.2585L124.023 48.0748C123.966 47.5634 123.853 47.1088 123.739 46.5974C123.569 46.0859 123.285 45.745 122.775 45.5177Z" fill="#17C5CE"/>
<path d="M151.313 60.6902L141.895 43.0173C141.668 42.6195 141.441 42.2786 141.1 42.0513C140.817 41.7671 140.476 41.5967 140.079 41.4262C139.739 41.3125 139.341 41.2557 138.888 41.2557C138.32 41.2557 137.753 41.483 137.242 41.824C136.732 42.1649 136.335 42.6195 136.051 43.1878L128.051 61.5994C127.711 62.2814 127.597 62.9064 127.541 63.4179C127.541 63.9293 127.711 64.3271 128.051 64.6681C128.392 65.009 128.959 65.35 129.696 65.6909C130.831 66.2024 131.625 66.316 132.25 66.0887C132.817 65.8614 133.384 65.1795 133.895 64.0998L135.37 60.6902L143.88 60.3493L145.639 63.5884C146.206 64.7249 146.83 65.35 147.398 65.5204C148.022 65.6909 148.873 65.4636 149.951 64.8954C150.632 64.4976 151.142 64.0998 151.483 63.702C151.766 63.3042 151.937 62.9064 151.88 62.395C151.88 61.9404 151.653 61.3721 151.313 60.6902ZM137.81 55.1213L139.285 51.7117L141.044 55.0076L137.81 55.1213Z" fill="#F96419"/>
<path d="M60.9335 25.2876C60.5931 24.8898 60.196 24.5489 59.7421 24.2647C59.2882 23.9806 58.8343 23.6965 58.3804 23.4692C58.04 23.2987 57.7563 23.0714 57.4727 22.9577C57.189 22.7872 56.962 22.6168 56.7351 22.4463C56.5082 22.2758 56.3947 22.0485 56.2812 21.8212C56.1678 21.5939 56.111 21.3666 56.111 21.0825C56.111 20.7983 56.1678 20.571 56.2812 20.4006C56.3947 20.2301 56.5649 20.0596 56.7351 20.0028C56.9053 19.8891 57.1323 19.8323 57.3592 19.8323C57.6996 19.8323 57.9833 19.8891 58.267 20.0596C58.5506 20.1732 58.7776 20.3437 59.0612 20.571C59.2882 20.7415 59.5719 20.912 59.7421 21.0256C59.9123 21.1961 60.196 21.1961 60.4229 21.0825C60.7066 20.9688 60.9335 20.7415 61.1604 20.4006C61.5009 19.9459 61.6143 19.4913 61.5576 19.1504C61.5009 18.8094 61.2172 18.4116 60.7633 18.0707C60.4796 17.9002 60.2527 17.6729 59.9123 17.5592C59.6286 17.3888 59.3449 17.2751 59.0045 17.1615C58.7208 17.0478 58.4372 16.991 58.1535 16.9342C57.8698 16.8773 57.5861 16.8773 57.3592 16.8773C56.3947 16.8773 55.6004 17.0478 54.8628 17.4456C54.182 17.8434 53.6147 18.3548 53.2743 18.9799C52.8771 19.605 52.7069 20.4005 52.7069 21.1961C52.7069 21.7644 52.7636 22.2758 52.8771 22.7304C52.9906 23.185 53.2175 23.5828 53.5012 23.9806C53.7849 24.3784 54.1253 24.7193 54.5224 25.0603C54.9196 25.4012 55.3735 25.7422 55.8841 26.0832C56.1678 26.2536 56.4514 26.3673 56.6784 26.5378C56.962 26.7082 57.189 26.8219 57.4159 26.9924C57.6429 27.1629 57.8131 27.2765 57.9833 27.447C58.1535 27.6175 58.267 27.7879 58.3804 27.9584C58.4939 28.1289 58.5506 28.2994 58.5506 28.4698C58.5506 28.9245 58.4372 29.3222 58.1535 29.6632C57.8698 29.9473 57.5294 30.1178 57.0188 30.1178C56.7918 30.1178 56.5649 30.061 56.338 30.0042C56.111 29.9473 55.9408 29.8337 55.7706 29.72C55.6004 29.6064 55.4302 29.4927 55.26 29.3222C55.0898 29.1518 54.9196 29.0381 54.8061 28.8676C54.3522 28.413 54.0118 28.2425 53.6714 28.3562C53.331 28.413 52.9906 28.754 52.5934 29.2654C52.4232 29.5495 52.3098 29.7768 52.1963 30.0042C52.1396 30.2315 52.1396 30.5156 52.1963 30.7429C52.253 30.9702 52.4232 31.1975 52.5934 31.4816C52.8204 31.7658 53.1041 31.9931 53.3877 32.2204C53.7281 32.4477 54.0686 32.6182 54.409 32.7886C54.8061 32.9591 55.2033 33.0728 55.6004 33.1864C55.9976 33.3001 56.3947 33.3001 56.7918 33.3001C58.3804 33.3001 59.6286 32.8455 60.5931 31.9931C61.5009 31.1407 62.0115 29.9473 62.0115 28.4698C62.0115 27.8448 61.898 27.2765 61.7278 26.7651C61.5576 26.0832 61.2739 25.6854 60.9335 25.2876Z" fill="#F96419"/>
<path d="M76.9896 20.2869C76.1953 20.0028 75.6279 19.9459 75.2875 20.1164C74.9471 20.3437 74.6634 20.7983 74.4932 21.4802L72.5075 30.6861L70.5218 21.4802C70.2948 20.7415 70.0111 20.2869 69.614 20.1164C69.2168 19.9459 68.7062 20.0028 68.0254 20.2869C67.4013 20.5142 67.0042 20.7983 66.7772 21.1961C66.5503 21.5939 66.5503 22.1053 66.834 22.7872L70.692 35.4026C70.8622 35.8004 71.0891 36.0277 71.3728 36.1414C71.6565 36.255 72.0536 36.3687 72.5075 36.3119C72.9614 36.3119 73.3018 36.255 73.6422 36.0845C73.9826 35.9709 74.1528 35.6868 74.323 35.3458L78.181 22.9009C78.4647 22.2758 78.5214 21.7076 78.3512 21.3098C78.181 20.912 77.7271 20.571 76.9896 20.2869Z" fill="#F96419"/>
<path d="M94.2371 26.7082C94.7477 26.14 94.9746 25.2876 94.9746 24.1511C94.9746 23.4692 94.8611 22.7873 94.6909 22.0485C94.5207 21.3098 94.1803 20.6847 93.7832 20.0596C93.386 19.4345 92.8187 18.9799 92.1946 18.5821C91.5705 18.1843 90.7762 18.0139 89.9252 18.0139C88.6203 18.0139 87.4856 18.3548 86.5778 19.0367C85.67 19.7186 84.9892 20.6847 84.5353 21.9349C84.0815 23.1282 83.8545 24.5489 83.8545 26.14C83.8545 27.2197 83.968 28.2426 84.1382 29.2086C84.3651 30.1746 84.6488 31.0839 85.1594 31.8794C85.6133 32.675 86.2374 33.3001 87.0317 33.7547C87.826 34.2093 88.7905 34.4366 89.9252 34.4366C90.7762 34.4366 91.5138 34.3229 92.2513 34.0956C92.9889 33.8683 93.613 33.5842 94.0668 33.1864C94.5207 32.7886 94.7477 32.4477 94.7477 32.0499C94.7477 31.8794 94.7477 31.6521 94.6909 31.5385C94.6342 31.368 94.5775 31.1975 94.464 30.9702C94.2938 30.6861 94.1236 30.4019 93.9534 30.2315C93.7832 30.061 93.4995 29.9473 93.2158 29.9473C93.0456 29.9473 92.8187 30.0042 92.7052 30.061C92.535 30.1178 92.3648 30.2315 92.1946 30.3451C92.0244 30.4588 91.8542 30.5724 91.684 30.6292C91.5138 30.7429 91.2301 30.7997 91.0031 30.8566C90.7195 30.9134 90.4358 30.9702 90.0954 30.9702C89.6415 30.9702 89.3011 30.8566 88.9607 30.5724C88.6203 30.2883 88.3366 29.8905 88.1664 29.3791C87.9962 28.8676 87.8827 28.2426 87.8827 27.5038H92.3081C93.1023 27.5606 93.7832 27.2765 94.2371 26.7082ZM91.2868 24.9466C91.1733 25.0603 90.8897 25.0603 90.4925 25.0603H87.7692C87.7692 24.4352 87.826 23.8101 87.9962 23.2987C88.1664 22.7873 88.3933 22.3326 88.7337 22.0485C89.0741 21.7076 89.4146 21.5939 89.8684 21.5939C90.2656 21.5939 90.5493 21.7076 90.7762 21.9349C91.0031 22.1622 91.1733 22.5031 91.2868 22.9009C91.4003 23.2987 91.457 23.7533 91.457 24.2647C91.5138 24.6057 91.457 24.8898 91.2868 24.9466Z" fill="#F96419"/>
<path d="M117.158 82C116.704 82 116.25 82 115.796 81.9432C112.562 81.7159 109.556 80.2384 107.286 77.8517C106.378 76.8857 105.698 75.8628 105.13 74.7263C103.598 75.465 101.84 75.9196 99.9106 76.0901C97.9816 76.3174 96.2795 76.2037 94.6342 75.8628C92.4783 76.8857 90.4358 77.3403 88.3366 77.3403C87.2019 77.3403 86.0672 77.1698 84.9892 76.8857C83.4006 76.431 81.9823 75.7491 80.6773 74.7831C79.4859 75.8628 78.181 76.6583 76.6492 77.2266C75.174 77.7949 73.6422 78.079 72.0536 78.079C70.0111 78.079 67.9687 77.6244 65.8127 76.7152C65.3021 76.4879 64.7348 76.2606 64.2809 75.9764C62.0115 76.431 59.7988 76.3174 57.7564 75.6355C56.7919 75.2945 55.8841 74.8967 54.9763 74.3285C53.4445 74.8967 51.7424 75.1809 49.8702 75.1809C49.3596 75.1809 48.8489 75.1809 48.3383 75.124C46.4093 74.9536 44.764 74.6126 43.2322 73.9307C42.6081 74.2148 42.0407 74.4421 41.4734 74.6694C40.2819 75.124 38.977 75.465 37.6154 75.806C34.4382 76.5447 31.2043 76.5447 28.0839 75.9196C26.1549 75.5218 24.2826 74.8967 22.5238 74.0444C20.2544 75.5787 17.5312 76.3174 14.1838 76.3174C10.7229 76.3174 7.88618 75.465 5.50331 73.7602C2.72329 71.7713 0.85103 68.8732 0.283679 65.5204C0.0567381 64.3839 -0.0567322 63.1906 -0.0567322 61.9972V43.9834C-0.0567322 42.79 0.0567381 41.5398 0.283679 40.4033C0.9645 37.1642 2.83676 34.2661 5.56005 32.2772C7.94292 30.5724 10.7797 29.7769 14.2405 29.7769C17.1907 29.7769 19.6871 30.4019 21.843 31.6521C23.5451 30.7997 25.4173 30.1178 27.2896 29.6632C28.5945 29.3791 29.9561 29.1518 31.4313 29.0949C32.9631 28.9813 34.495 29.0381 35.9701 29.2086C37.7856 29.4359 39.4876 29.8337 41.0762 30.4588C41.0762 29.1518 41.2464 27.9016 41.5868 26.6514C41.7571 26.14 41.9273 25.6854 42.0975 25.2308C41.757 23.9238 41.5868 22.5031 41.5868 21.0825C41.5868 18.298 42.2677 15.6272 43.686 13.2973C45.1044 10.8538 47.1469 8.86486 49.6432 7.55786C51.9694 6.30769 54.5225 5.6826 57.3025 5.6826C58.267 5.6826 59.2315 5.79626 60.196 5.96673C60.9903 6.13721 61.7278 6.30769 62.5221 6.59182C63.4866 6.93278 64.3944 7.33056 65.3021 7.84199C65.9829 8.23978 66.6638 8.69439 67.3446 9.14899L67.4013 9.20582C69.1601 8.97852 70.8054 9.09217 72.4508 9.54678C73.5287 9.26265 74.6634 9.09217 75.7981 9.09217C77.3867 9.09217 78.9186 9.3763 80.5639 9.94456C83.2304 8.12612 86.4643 7.16008 89.9252 7.16008C90.8897 7.16008 91.8542 7.21691 92.7619 7.38739C93.7264 5.228 95.3717 3.35274 97.4142 2.04574C99.4567 0.738738 101.783 0.113651 104.563 0.113651C107.286 0.113651 109.726 0.795564 111.825 2.10256C114.435 3.80734 116.307 6.36452 117.101 9.3763C117.158 9.6036 117.215 9.77408 117.271 10.0014C117.725 10.5128 118.123 11.0243 118.463 11.5925C119.711 13.6383 120.392 16.0818 120.392 18.7526C120.392 21.0825 119.881 23.2419 118.917 25.1171C119.371 25.0603 119.881 25.0603 120.335 25.0603C124.363 25.0603 127.087 26.5378 128.732 27.7879C130.207 28.9245 131.342 30.3451 132.193 31.9931C134.122 30.9134 136.335 30.2883 138.547 30.2315C138.717 30.2315 138.944 30.2315 139.115 30.2315C140.817 30.2315 142.462 30.5156 144.05 31.1407C145.639 31.7089 147.057 32.5613 148.362 33.6978C149.724 34.8912 150.859 36.3119 151.766 37.9598L161.128 55.5759C162.206 57.6216 162.83 59.6105 163.057 61.5994C163.34 64.9522 162.319 68.2481 160.22 70.8621C159.029 72.3396 157.497 73.5897 155.568 74.6694L155.284 74.8399C152.788 76.1469 150.462 76.772 148.022 76.772C146.831 76.772 145.696 76.6015 144.561 76.3174C142.973 75.8628 141.554 75.124 140.306 74.158C139.115 75.2377 137.753 76.0333 136.278 76.6015C134.292 77.3403 132.193 77.5676 130.037 77.2834C128.789 78.3631 127.484 79.2723 126.065 79.9543C123.966 81.034 121.754 81.7159 119.484 82C118.69 81.9432 117.952 82 117.158 82ZM108.024 66.0319L108.988 70.1802C109.385 71.885 110.066 73.192 111.031 74.2717C112.392 75.7491 114.208 76.6015 116.194 76.772C116.534 76.772 116.818 76.8288 117.158 76.8288C117.725 76.8288 118.236 76.772 118.803 76.7152C120.449 76.4879 122.094 75.9764 123.683 75.1809C124.987 74.499 126.236 73.5897 127.37 72.51L128.335 71.544L129.697 71.8281C131.342 72.2259 132.93 72.1123 134.406 71.6008C135.824 71.0894 137.015 70.1802 138.037 68.8163L139.966 66.316L142.008 68.7027C143.086 69.9529 144.391 70.8053 145.866 71.2031C146.547 71.3735 147.228 71.4872 147.908 71.4872C149.44 71.4872 151.029 71.0326 152.788 70.1234L152.958 70.0665C154.32 69.271 155.398 68.4186 156.135 67.4525C157.44 65.8614 158.007 63.8725 157.837 61.8836C157.724 60.5766 157.27 59.2128 156.532 57.8489L147.171 40.2328C146.604 39.1532 145.866 38.2439 145.015 37.5052C144.164 36.8233 143.256 36.255 142.235 35.8572C141.214 35.4595 140.192 35.289 139.115 35.289C139.001 35.289 138.888 35.289 138.717 35.289C137.072 35.3458 135.427 35.9141 133.952 36.8801C133.554 37.1642 133.101 37.5052 132.703 37.903L129.47 40.9716L128.448 36.6528C127.938 34.5502 126.973 32.9023 125.555 31.8226C124.59 31.0839 122.888 30.1746 120.335 30.1746C119.825 30.1746 119.257 30.2315 118.69 30.2883C118.349 30.3451 118.009 30.4019 117.669 30.4588L115.229 30.9134L114.662 28.5267C114.491 27.7311 114.208 27.0492 113.811 26.4241L112.96 25.0035L113.867 23.5828C114.038 23.3555 114.151 23.1282 114.321 22.9009C114.945 21.7076 115.286 20.3437 115.286 18.8094C115.286 17.1046 114.889 15.5703 114.151 14.3202C113.867 13.8656 113.527 13.4109 113.13 13.0132L112.562 12.4449L112.449 11.6493C112.392 11.3084 112.336 11.0243 112.279 10.7401C111.825 9.03534 110.747 7.50104 109.215 6.535C107.967 5.73943 106.435 5.34165 104.676 5.34165C102.918 5.34165 101.442 5.73943 100.251 6.47817C98.7191 7.44421 97.5844 8.92169 97.1305 10.6265C97.1305 10.6833 97.1305 10.7401 97.0738 10.7969L97.0171 11.0243L96.393 13.8656L93.6697 12.8995C92.535 12.5017 91.2868 12.2744 89.9819 12.2744C87.3154 12.2744 84.9325 13.07 83.0035 14.6043C82.9468 14.6611 82.89 14.7179 82.8333 14.7179L81.4149 15.9113L79.9398 15.2294C79.6561 15.1157 79.3724 15.0021 79.1455 14.8884C76.9896 14.0929 75.1173 14.036 73.4153 14.6611L72.5642 15.0021L71.7132 14.6611C70.9189 14.377 70.1246 14.2633 69.2736 14.2633C68.7062 14.2633 68.0822 14.3202 67.4013 14.4906L66.0964 14.7748L65.1319 13.8656C64.905 13.6383 64.678 13.4678 64.4511 13.2973C63.9972 12.9563 63.4866 12.6154 62.976 12.3313C62.3519 11.9903 61.7278 11.7062 61.047 11.4789C60.5364 11.3084 59.969 11.1379 59.4017 11.0243C58.7776 10.9106 58.0968 10.8538 57.4727 10.8538C55.5437 10.8538 53.7849 11.2516 52.1963 12.1039C50.551 13.0132 49.1894 14.3202 48.2249 15.9113C47.3171 17.5024 46.8632 19.264 46.8632 21.1393C46.8632 22.2758 47.0334 23.2987 47.2604 24.3216C47.3171 24.4352 47.3171 24.6057 47.3738 24.7193L47.7142 25.7422L47.2036 26.7082C46.9199 27.2197 46.7497 27.7311 46.5795 28.2425C46.1824 29.5495 46.1824 30.9702 46.5228 32.2772C46.5228 32.334 46.5795 32.3909 46.5795 32.4477L47.1469 34.2661L45.5583 35.3458C45.1612 35.6299 44.8207 35.8572 44.5938 36.0845L43.1187 37.1642L41.5301 36.255C40.7926 35.8572 40.055 35.5163 39.2607 35.1753C38.0693 34.7207 36.8211 34.3798 35.4595 34.2661C34.2113 34.0956 33.0198 34.0956 31.7717 34.1525C30.5802 34.2093 29.4455 34.3798 28.4243 34.6071C26.4953 35.0617 24.6798 35.8004 22.9777 36.7665L21.5593 37.6757L20.1977 36.596C20.141 36.5392 20.0842 36.4823 20.0275 36.4823C18.5524 35.4026 16.6801 34.8912 14.2973 34.8912C11.9144 34.8912 10.0989 35.4026 8.56701 36.4823C6.86495 37.6757 5.73025 39.4373 5.38984 41.4262C5.1629 42.2218 5.10616 43.131 5.10616 43.9834V61.9404C5.10616 62.7928 5.1629 63.702 5.3331 64.4976C5.73025 66.5433 6.80822 68.3049 8.51027 69.4983C9.98538 70.578 11.8576 71.0894 14.1838 71.0894C16.5667 71.0894 18.3822 70.578 19.8573 69.5551C20.0842 69.3846 20.3112 69.2141 20.5381 68.9868L21.8998 67.7935L23.4883 68.7027C25.2471 69.7256 27.1194 70.4075 29.0484 70.8053C31.4313 71.3167 33.9276 71.2599 36.3672 70.6916C37.5019 70.4075 38.5799 70.1233 39.6011 69.7256C40.3954 69.4414 41.133 69.1005 41.984 68.7027L43.1754 68.0776L44.3669 68.7027C45.5583 69.3278 46.9767 69.7256 48.622 69.8392C49.0191 69.896 49.4163 69.896 49.7567 69.896C51.3453 69.896 52.7637 69.6119 54.0118 68.9868L55.487 68.2481L56.7919 69.271C57.5294 69.896 58.3804 70.3507 59.2882 70.6348C60.7066 71.0894 62.2384 71.1462 63.8837 70.6348L64.9617 70.2938L65.9262 70.9189C66.4936 71.2599 67.0609 71.6008 67.7417 71.885C69.2736 72.5669 70.6352 72.851 71.9969 72.851C72.9614 72.851 73.9259 72.6805 74.7769 72.3396C76.1953 71.7713 77.3867 70.8621 78.4079 69.4983L80.2802 66.9411L82.3794 69.3278C83.5141 70.578 84.7623 71.3735 86.2374 71.8281C86.8615 71.9986 87.5423 72.1123 88.2231 72.1123C89.755 72.1123 91.3436 71.6577 93.0456 70.7484L94.0101 70.237L95.0313 70.578C96.2795 70.9757 97.6412 71.0894 99.2865 70.9189C101.613 70.6916 103.371 70.0097 104.733 68.8163L108.024 66.0319Z" fill="#17C5CE"/>
<path d="M107.513 20.571C107.91 20.571 108.194 20.5142 108.478 20.4574C108.761 20.4006 108.931 20.2301 109.102 19.9459C109.272 19.6618 109.329 19.264 109.329 18.6958C109.329 18.0707 109.215 17.6161 109.045 17.3319C108.875 17.0478 108.648 16.8773 108.364 16.8205C108.08 16.7637 107.74 16.7069 107.343 16.7637L106.549 16.8205V13.07C106.549 12.729 106.492 12.3881 106.435 12.104C106.378 11.8198 106.208 11.5925 105.924 11.422C105.641 11.2516 105.187 11.1379 104.62 11.1379C103.995 11.1379 103.598 11.1947 103.315 11.3652C103.031 11.5357 102.861 11.763 102.804 12.0471C102.747 12.3313 102.691 12.6722 102.691 13.07V16.8773H102.293C101.783 16.8773 101.386 16.991 101.159 17.2751C100.932 17.5593 100.762 18.0707 100.762 18.6958C100.762 19.3777 100.875 19.8323 101.045 20.1733C101.272 20.4574 101.613 20.6279 102.18 20.6279H102.691V27.7311C102.691 28.5267 102.804 29.2654 102.974 29.8337C103.144 30.4588 103.428 30.9702 103.769 31.368C104.166 31.7658 104.62 32.1067 105.187 32.2772C105.754 32.5045 106.435 32.5613 107.229 32.5613C107.513 32.5613 107.797 32.5045 108.08 32.4477C108.364 32.3909 108.591 32.2204 108.761 31.9362C108.931 31.6521 109.045 31.1975 109.045 30.6292C109.045 30.061 108.988 29.6632 108.818 29.3791C108.648 29.1518 108.478 28.9813 108.251 28.9245C108.024 28.8676 107.74 28.8108 107.456 28.8108C107.286 28.8108 107.173 28.8108 107.059 28.754C106.946 28.6972 106.889 28.6403 106.832 28.4699C106.776 28.3562 106.719 28.1857 106.719 28.0152C106.719 27.8448 106.662 27.6175 106.662 27.3333V20.5142L107.513 20.571Z" fill="#F96419"/>
</g>
</g>
<defs>
<clipPath id="clip0_12_2">
<rect width="163" height="82" fill="white"/>
</clipPath>
<clipPath id="clip1_12_2">
<rect width="163" height="82" fill="white"/>
</clipPath>
</defs>
</svg>
