<svg width="35" height="35" viewBox="0 0 35 35" fill="none" xmlns="http://www.w3.org/2000/svg">
<path d="M0.700012 27.3817H21V34.2179L25.2 31.6979L29.4 34.2179V27.3817H34.3V0.781738H0.700012V27.3817ZM28.1855 22.6315C28.1225 22.6952 28.0553 22.754 27.9888 22.8135C27.951 22.8471 27.916 22.8828 27.8768 22.915C27.8334 22.9514 27.7872 22.9822 27.7424 23.0165C27.1523 23.468 26.4411 23.7683 25.6648 23.8544C25.6522 23.8558 25.6396 23.8586 25.6263 23.86C25.4856 23.874 25.3428 23.8817 25.1986 23.8817C25.0544 23.8817 24.9116 23.874 24.7709 23.86C24.7583 23.8586 24.7457 23.8558 24.7324 23.8544C23.9561 23.7683 23.2456 23.468 22.6548 23.0165C22.61 22.9822 22.5638 22.9507 22.5204 22.915C22.4819 22.8828 22.4462 22.8471 22.4084 22.8135C22.3419 22.754 22.2754 22.6952 22.2117 22.6315C21.462 21.8727 20.9972 20.8311 20.9972 19.6817C20.9972 17.3654 22.8809 15.4817 25.1972 15.4817C27.5135 15.4817 29.3972 17.3654 29.3972 19.6817C29.4 20.8304 28.9359 21.872 28.1855 22.6315ZM28 31.7455L25.2 30.0655L22.4 31.7455V27.3817V24.5327C22.4238 24.5467 22.4504 24.5558 22.4749 24.5691C22.6604 24.6727 22.8515 24.7679 23.0489 24.8505C23.0573 24.854 23.0664 24.8568 23.0755 24.8603C23.7314 25.1305 24.4482 25.2817 25.2007 25.2817C25.9532 25.2817 26.67 25.1305 27.3259 24.8603C27.3343 24.8568 27.3434 24.854 27.3525 24.8505C27.5499 24.7679 27.741 24.6734 27.9265 24.5691C27.951 24.5558 27.9776 24.5467 28.0014 24.5327V27.3817V31.7455H28ZM2.10001 2.18174H32.9V25.9817H29.4V23.3735C30.2687 22.3865 30.8 21.0964 30.8 19.6817C30.8 16.594 28.2877 14.0817 25.2 14.0817C22.1123 14.0817 19.6 16.594 19.6 19.6817C19.6 21.0964 20.1313 22.3865 21 23.3735V25.9817H2.10001V2.18174Z" fill="white"/>
<path d="M26.6 4.98193H8.40002V6.38193H26.6V4.98193Z" fill="white"/>
<path d="M23.1 9.18164H11.9V10.5816H23.1V9.18164Z" fill="white"/>
<path d="M12.6 21.7817H4.90002V23.1817H12.6V21.7817Z" fill="white"/>
</svg>
