<svg width="48" height="22" viewBox="0 0 48 22" fill="none" xmlns="http://www.w3.org/2000/svg">
<path d="M43.9336 4.23242C43.7422 3.95898 43.4277 3.79492 43.0996 3.79492H36.7422V1.08789C36.7422 0.527344 36.2773 0.0625 35.7168 0.0625H12.6797C12.1191 0.0625 11.6543 0.527344 11.6543 1.08789V17.6582C11.6543 18.2188 12.1191 18.6836 12.6797 18.6836H15.5781C16.1113 20.543 17.834 21.9238 19.8574 21.9238C21.8809 21.9238 23.6035 20.5566 24.1367 18.6836H35.498C36.0313 20.543 37.7539 21.9238 39.7773 21.9238C41.8008 21.9238 43.5234 20.5566 44.0566 18.6836H46.1758C46.7363 18.6836 47.2012 18.2188 47.2012 17.6582V9.22266C47.2012 9.00391 47.1328 8.79883 47.0098 8.63477L43.9336 4.23242ZM45.1641 9.52344H40.5703V5.85937H42.5801L45.1641 9.52344ZM13.7051 2.12695H34.6914V16.6465H24.2324C23.8359 14.582 22.0312 13.0234 19.8574 13.0234C17.6836 13.0234 15.8652 14.582 15.4824 16.6465H13.7051V2.12695ZM19.8574 19.873C18.5312 19.873 17.4512 18.793 17.4512 17.4668C17.4512 16.1406 18.5312 15.0605 19.8574 15.0605C21.1836 15.0605 22.2637 16.1406 22.2637 17.4668C22.2637 18.793 21.1836 19.873 19.8574 19.873ZM39.791 19.873C38.4648 19.873 37.3848 18.793 37.3848 17.4668C37.3848 16.1406 38.4648 15.0605 39.791 15.0605C41.1172 15.0605 42.1973 16.1406 42.1973 17.4668C42.1973 18.793 41.1172 19.873 39.791 19.873ZM44.166 16.6465C43.7695 14.582 41.9648 13.0234 39.791 13.0234C38.6152 13.0234 37.5352 13.4883 36.7422 14.2402V5.85937H38.5059V10.5488C38.5059 11.1094 38.9707 11.5742 39.5313 11.5742H45.1777V16.6465H44.166Z" fill="white"/>
<path d="M1.79688 2.12695H9.11133C9.67188 2.12695 10.1367 1.66211 10.1367 1.10156C10.1367 0.541016 9.67188 0.0761719 9.11133 0.0761719H1.79688C1.23633 0.0761719 0.771484 0.541016 0.771484 1.10156C0.771484 1.66211 1.23633 2.12695 1.79688 2.12695Z" fill="white"/>
<path d="M9.11133 3.80859H3.47852C2.91797 3.80859 2.45312 4.27344 2.45312 4.83398C2.45312 5.39453 2.91797 5.85938 3.47852 5.85938H9.11133C9.67188 5.85938 10.1367 5.39453 10.1367 4.83398C10.1367 4.27344 9.68555 3.80859 9.11133 3.80859Z" fill="white"/>
<path d="M9.11133 7.54102H5.55664C4.99609 7.54102 4.53125 8.00586 4.53125 8.56641C4.53125 9.12695 4.99609 9.5918 5.55664 9.5918H9.11133C9.67188 9.5918 10.1367 9.12695 10.1367 8.56641C10.1367 8.00586 9.68555 7.54102 9.11133 7.54102Z" fill="white"/>
<path d="M9.11133 11.2734H7.88086C7.32031 11.2734 6.85547 11.7383 6.85547 12.2988C6.85547 12.8594 7.32031 13.3242 7.88086 13.3242H9.11133C9.67188 13.3242 10.1367 12.8594 10.1367 12.2988C10.1367 11.7383 9.68555 11.2734 9.11133 11.2734Z" fill="white"/>
</svg>
