<svg width="40" height="40" viewBox="0 0 40 40" fill="none" xmlns="http://www.w3.org/2000/svg">
<path d="M25.25 12.856C25.2084 12.7312 25.1288 12.6225 25.0223 12.5451C24.9158 12.4678 24.7878 12.4257 24.6562 12.4248H21.55L20.5937 9.47477C20.5526 9.34972 20.4731 9.24085 20.3665 9.16366C20.2599 9.08648 20.1316 9.04492 20 9.04492C19.8684 9.04492 19.7401 9.08648 19.6335 9.16366C19.5269 9.24085 19.4473 9.34972 19.4062 9.47477L18.45 12.4248H15.3437C15.2122 12.4257 15.0842 12.4678 14.9777 12.5451C14.8712 12.6225 14.7916 12.7312 14.75 12.856C14.7085 12.9821 14.7085 13.1181 14.7501 13.2442C14.7918 13.3702 14.8728 13.4795 14.9812 13.556L17.4875 15.381L16.5312 18.331C16.49 18.4565 16.4895 18.5918 16.5299 18.7176C16.5703 18.8434 16.6496 18.9531 16.7562 19.031C16.8641 19.1073 16.9929 19.1482 17.125 19.1482C17.2571 19.1482 17.3859 19.1073 17.4937 19.031L20 17.206L22.5062 19.031C22.615 19.1056 22.7431 19.1468 22.875 19.1498C23.0071 19.1487 23.1358 19.1073 23.2437 19.031C23.3504 18.9531 23.4296 18.8434 23.4701 18.7176C23.5105 18.5918 23.51 18.4565 23.4687 18.331L22.5125 15.381L25.0187 13.556C25.1272 13.4795 25.2082 13.3702 25.2499 13.2442C25.2915 13.1181 25.2915 12.9821 25.25 12.856ZM21.4125 14.6373C21.3052 14.7147 21.225 14.8241 21.1835 14.9498C21.142 15.0755 21.1412 15.2111 21.1812 15.3373L21.6875 16.8873L20.3687 15.9248C20.2613 15.8475 20.1323 15.806 20 15.806C19.8677 15.806 19.7387 15.8475 19.6312 15.9248L18.3125 16.8873L18.8187 15.3373C18.8588 15.2111 18.858 15.0755 18.8165 14.9498C18.775 14.8241 18.6948 14.7147 18.5875 14.6373L17.2687 13.6748H18.9C19.032 13.6755 19.1608 13.6341 19.2676 13.5565C19.3744 13.479 19.4537 13.3693 19.4937 13.2435L20 11.6935L20.5062 13.2435C20.5463 13.3693 20.6256 13.479 20.7324 13.5565C20.8392 13.6341 20.968 13.6755 21.1 13.6748H22.7312L21.4125 14.6373Z" fill="white"/>
<path d="M19.9999 6.41211C17.8662 6.41152 15.8148 7.2352 14.2739 8.71117C12.7331 10.1871 11.822 12.2013 11.7308 14.333C11.6397 16.4648 12.3756 18.5494 13.7848 20.1515C15.1941 21.7536 17.1677 22.7493 19.2937 22.9309C19.5312 22.9496 19.7624 22.9621 19.9999 22.9621C20.2124 22.9621 20.4312 22.9496 20.6437 22.9309H20.7062V22.9246C22.8314 22.7431 24.8043 21.7477 26.2129 20.1462C27.6216 18.5447 28.3572 16.4609 28.2661 14.3299C28.1749 12.199 27.2641 10.1856 25.7238 8.71021C24.1835 7.23482 22.1328 6.41148 19.9999 6.41211ZM26.1312 18.1121C26.1295 18.1121 26.1279 18.1128 26.1268 18.1139C26.1256 18.1151 26.1249 18.1167 26.1249 18.1184C25.5659 19.1203 24.7689 19.9693 23.8043 20.5906C22.8397 21.2118 21.7371 21.5863 20.5937 21.6809L20.5874 21.6871H20.5812C20.1904 21.7256 19.7966 21.7235 19.4062 21.6809C17.8954 21.5521 16.4668 20.9378 15.3341 19.9299C14.2014 18.9219 13.4253 17.5744 13.1219 16.0888C12.8186 14.6031 13.0042 13.0592 13.651 11.6879C14.2979 10.3165 15.3712 9.19131 16.7106 8.48055C18.05 7.76978 19.5834 7.51162 21.0817 7.74464C22.5799 7.97767 23.9625 8.68937 25.0228 9.77335C26.083 10.8573 26.7639 12.2553 26.9637 13.7584C27.1635 15.2615 26.8714 16.7888 26.1312 18.1121Z" fill="white"/>
<path d="M36.8 32.9561L34.45 29.3123C32.7687 26.7186 31.0896 24.1207 29.4125 21.5186C29.5437 21.4686 29.6937 21.4123 29.8437 21.3623C30.1825 21.2945 30.5044 21.1601 30.7908 20.967C31.0773 20.7739 31.3226 20.5259 31.5125 20.2373C31.6187 19.911 31.6596 19.567 31.6327 19.2249C31.6059 18.8828 31.512 18.5493 31.3562 18.2436C31.2093 17.9237 31.1306 17.5768 31.125 17.2248C31.2798 16.924 31.4946 16.6581 31.7562 16.4436C32.0345 16.2329 32.2683 15.9692 32.4442 15.6678C32.6201 15.3664 32.7346 15.0332 32.7812 14.6873C32.7353 14.3421 32.621 14.0096 32.445 13.7091C32.269 13.4086 32.0349 13.1462 31.7562 12.9373C31.4956 12.7194 31.281 12.4517 31.125 12.1498C31.1306 11.7979 31.2093 11.4509 31.3562 11.1311C31.5119 10.8264 31.6058 10.494 31.6326 10.1529C31.6594 9.81184 31.6186 9.46883 31.5125 9.14357C31.322 8.8555 31.0766 8.60784 30.7902 8.4148C30.5039 8.22175 30.1822 8.0871 29.8437 8.01857C29.5071 7.93343 29.1907 7.78262 28.9125 7.57482C28.7742 7.25677 28.6978 6.91525 28.6875 6.56857C28.6969 6.22413 28.6383 5.88121 28.5149 5.55946C28.3916 5.23772 28.206 4.94347 27.9687 4.69357C27.3714 4.3419 26.6591 4.24079 25.9875 4.41232C25.6473 4.48254 25.2964 4.48254 24.9562 4.41232C24.6944 4.19302 24.4797 3.92302 24.325 3.61857C24.1829 3.29963 23.9787 3.01215 23.7244 2.77287C23.4701 2.53359 23.1707 2.34729 22.8437 2.22482C22.5051 2.19571 22.1641 2.23373 21.8402 2.33669C21.5163 2.43965 21.2159 2.60553 20.9562 2.82482C20.6723 3.04119 20.3468 3.19653 20 3.28107C19.6532 3.19653 19.3276 3.04119 19.0437 2.82482C18.785 2.60601 18.4857 2.44039 18.1629 2.33743C17.8401 2.23447 17.5001 2.19621 17.1625 2.22482C16.8341 2.34621 16.5334 2.53206 16.2779 2.77141C16.0225 3.01077 15.8175 3.29881 15.675 3.61857C15.52 3.92113 15.3078 4.1907 15.05 4.41232C14.7077 4.48244 14.3548 4.48244 14.0125 4.41232C13.3429 4.24071 12.6326 4.34187 12.0375 4.69357C11.7976 4.94317 11.6099 5.23811 11.4854 5.56114C11.3609 5.88417 11.3021 6.22879 11.3125 6.57482C11.3061 6.92065 11.2273 7.2613 11.0812 7.57482C10.8088 7.78297 10.4958 7.93198 10.1625 8.01232C9.47727 8.15088 8.87494 8.55543 8.48749 9.13732C8.38129 9.46362 8.34042 9.80765 8.36723 10.1497C8.39404 10.4918 8.488 10.8253 8.64374 11.1311C8.79065 11.4509 8.8694 11.7979 8.87499 12.1498C8.71898 12.4517 8.50439 12.7194 8.24374 12.9373C7.96511 13.1462 7.73095 13.4086 7.55495 13.7091C7.37895 14.0096 7.26465 14.3421 7.21874 14.6873C7.26534 15.0332 7.3799 15.3664 7.55581 15.6678C7.73172 15.9692 7.96552 16.2329 8.24374 16.4436C8.50534 16.6581 8.72018 16.924 8.87499 17.2248C8.8694 17.5768 8.79065 17.9237 8.64374 18.2436C8.48812 18.5483 8.39421 18.8807 8.36739 19.2217C8.34058 19.5628 8.38139 19.9058 8.48749 20.2311C8.67645 20.5205 8.92146 20.7692 9.20806 20.9624C9.49467 21.1556 9.81707 21.2895 10.1562 21.3561C10.3 21.4123 10.45 21.4623 10.5875 21.5186C8.90624 24.1186 7.22707 26.7165 5.54999 29.3123L3.19999 32.9561C3.1322 33.0582 3.09657 33.1782 3.09768 33.3008C3.0988 33.4233 3.13661 33.5427 3.20624 33.6436C3.27414 33.7444 3.37018 33.823 3.48241 33.8697C3.59465 33.9164 3.71812 33.929 3.83749 33.9061L8.10624 33.1123L9.14374 37.3373C9.17386 37.4554 9.23783 37.562 9.32777 37.6442C9.41772 37.7264 9.52971 37.7805 9.64999 37.7998C9.68287 37.8071 9.71634 37.8112 9.74999 37.8123C9.85473 37.813 9.95791 37.787 10.0498 37.7367C10.1417 37.6864 10.2192 37.6134 10.275 37.5248L17.0125 27.0936C17.0625 27.1061 17.1062 27.1373 17.1562 27.1498C17.2586 27.1742 17.3635 27.1868 17.4687 27.1873C18.0425 27.1241 18.5875 26.9035 19.0437 26.5498C19.3276 26.3335 19.6532 26.1781 20 26.0936C20.3468 26.1781 20.6723 26.3335 20.9562 26.5498C21.2161 26.7708 21.5174 26.9378 21.8426 27.0408C22.1678 27.1438 22.5103 27.1809 22.85 27.1498C22.9 27.1373 22.9437 27.1061 22.9875 27.0936L29.725 37.5248C29.7808 37.6134 29.8583 37.6864 29.9502 37.7367C30.0421 37.787 30.1453 37.813 30.25 37.8123C30.2836 37.8112 30.3171 37.8071 30.35 37.7998C30.4703 37.7805 30.5823 37.7264 30.6722 37.6442C30.7621 37.562 30.8261 37.4554 30.8562 37.3373L31.8937 33.1123L36.1625 33.9061C36.2818 33.9284 36.4051 33.9154 36.5172 33.8688C36.6293 33.8222 36.7254 33.7439 36.7937 33.6436C36.8634 33.5427 36.9012 33.4233 36.9023 33.3008C36.9034 33.1782 36.8678 33.0582 36.8 32.9561ZM10.0125 35.6248L9.18124 32.2436C9.14389 32.0885 9.04865 31.9535 8.91502 31.8664C8.78139 31.7792 8.61949 31.7465 8.46249 31.7748L5.03749 32.4123L6.59999 29.9936C8.16249 27.5686 9.72915 25.1436 11.3 22.7186C11.3068 22.7473 11.311 22.7766 11.3125 22.8061C11.3031 23.1505 11.3617 23.4934 11.4851 23.8152C11.6084 24.1369 11.794 24.4312 12.0312 24.6811C12.6287 25.0324 13.3408 25.1335 14.0125 24.9623C14.3527 24.8921 14.7036 24.8921 15.0437 24.9623C15.307 25.1802 15.522 25.4505 15.675 25.7561C15.7937 25.9373 15.9125 26.1186 16.0375 26.2936L10.0125 35.6248ZM22.75 25.8061C22.6995 25.8634 22.6348 25.9065 22.5625 25.9311C22.3875 25.9686 21.925 25.6873 21.625 25.4936C21.1551 25.1287 20.5919 24.9034 20 24.8436C19.408 24.9034 18.8449 25.1287 18.375 25.4936C18.075 25.6873 17.6125 25.9748 17.4437 25.9373C17.3671 25.908 17.2986 25.8609 17.2437 25.7998C17.0502 25.5832 16.8805 25.3464 16.7375 25.0936C16.4789 24.5777 16.0831 24.1431 15.5937 23.8373C15.3096 23.708 14.9995 23.646 14.6875 23.6561C14.4157 23.6614 14.1444 23.6822 13.875 23.7186C13.4875 23.7623 12.9625 23.8248 12.8125 23.7061C12.6625 23.5873 12.6 23.0561 12.5562 22.6686C12.5486 22.0833 12.3776 21.5118 12.0625 21.0186C12.0128 20.9562 11.9561 20.8996 11.8937 20.8498C11.8699 20.8296 11.8448 20.8108 11.8187 20.7936L11.8125 20.7873H11.8062C11.4326 20.5141 11.0137 20.3088 10.5687 20.1811C10.2 20.0498 9.69999 19.8748 9.61249 19.6873C9.52499 19.5123 9.69999 19.0186 9.82499 18.6561C10.0753 18.1246 10.1686 17.5326 10.0937 16.9498C9.9102 16.4024 9.57409 15.9189 9.12499 15.5561C8.84999 15.2811 8.46874 14.8998 8.46874 14.6873C8.46874 14.4748 8.84999 14.0936 9.12499 13.8186C9.57409 13.4558 9.9102 12.9722 10.0937 12.4248C10.1686 11.8421 10.0753 11.2501 9.82499 10.7186C9.69999 10.3561 9.52499 9.86232 9.61249 9.68107C9.69999 9.49982 10.2062 9.32482 10.575 9.19357C11.1384 9.0611 11.6523 8.77055 12.0562 8.35607C12.376 7.86694 12.5495 7.29667 12.5562 6.71232C12.6 6.32482 12.6562 5.79982 12.8125 5.67482C12.9687 5.54982 13.4875 5.61232 13.875 5.65607C14.4477 5.77808 15.0432 5.73694 15.5937 5.53732C16.0846 5.23335 16.4808 4.79824 16.7375 4.28107C16.9437 3.94357 17.2312 3.48732 17.4375 3.44357C17.6125 3.39982 18.075 3.69357 18.375 3.88107C18.8449 4.24597 19.408 4.47122 20 4.53107C20.5919 4.47122 21.1551 4.24597 21.625 3.88107C21.925 3.69357 22.3812 3.40607 22.5625 3.44357C22.7687 3.48732 23.0562 3.94357 23.2625 4.28107C23.5192 4.79824 23.9154 5.23335 24.4062 5.53732C24.9568 5.73694 25.5522 5.77808 26.125 5.65607C26.5125 5.61232 27.0375 5.54982 27.1875 5.66857C27.3375 5.78732 27.4 6.31857 27.4437 6.70607C27.4514 7.29134 27.6224 7.86283 27.9375 8.35607C28.3474 8.77053 28.8647 9.06268 29.4312 9.19982C29.8 9.32482 30.3 9.49982 30.3875 9.68732C30.475 9.86232 30.3 10.3561 30.175 10.7186C29.9246 11.2501 29.8314 11.8421 29.9062 12.4248C30.0898 12.9722 30.4259 13.4558 30.875 13.8186C31.15 14.0936 31.5312 14.4748 31.5312 14.6873C31.5312 14.8998 31.15 15.2811 30.875 15.5561C30.4259 15.9189 30.0898 16.4024 29.9062 16.9498C29.8314 17.5326 29.9246 18.1246 30.175 18.6561C30.3 19.0186 30.475 19.5123 30.3875 19.6936C30.3 19.8748 29.7937 20.0561 29.4312 20.1811C28.9632 20.3089 28.524 20.5254 28.1375 20.8186C28.0682 20.8805 28.0035 20.9474 27.9437 21.0186C27.624 21.5077 27.4505 22.078 27.4437 22.6623C27.4 23.0498 27.3437 23.5748 27.1875 23.6998C27.0312 23.8248 26.5125 23.7623 26.125 23.7186C25.5525 23.5934 24.9561 23.6346 24.4062 23.8373C23.9168 24.1431 23.5211 24.5777 23.2625 25.0936C23.118 25.349 22.9462 25.5879 22.75 25.8061ZM31.5375 31.7748C31.3805 31.7465 31.2186 31.7792 31.085 31.8664C30.9513 31.9535 30.8561 32.0885 30.8187 32.2436L29.9875 35.6248L23.9625 26.2936C24.0875 26.1186 24.2062 25.9373 24.325 25.7561C24.4782 25.4524 24.6907 25.1825 24.95 24.9623C25.2923 24.8922 25.6452 24.8922 25.9875 24.9623C26.6571 25.1339 27.3674 25.0328 27.9625 24.6811C28.2018 24.4324 28.3892 24.1385 28.5137 23.8165C28.6382 23.4946 28.6972 23.1511 28.6875 22.8061C28.6886 22.7766 28.6928 22.7472 28.7 22.7186C30.2687 25.1436 31.8354 27.5686 33.4 29.9936L34.9625 32.4123L31.5375 31.7748Z" fill="white"/>
</svg>
