<svg width="32" height="32" viewBox="0 0 32 32" fill="none" xmlns="http://www.w3.org/2000/svg">
<rect width="32" height="32" rx="10" fill="#333333"/>
<g clip-path="url(#clip0_411_210)">
<path d="M16.3637 19.2273C15.8706 19.2273 15.3775 19.0655 14.9569 18.7378L8.72729 13.8937V20.6591C8.72729 21.4496 9.36833 22.0909 10.1591 22.0909H22.5682C23.359 22.0909 24 21.4499 24 20.6591V13.8937L17.7716 18.741C17.351 19.0662 16.8558 19.2273 16.3637 19.2273ZM9.21322 13.0615L15.543 17.9864C16.026 18.3622 16.7025 18.3622 17.1855 17.9864L23.5153 13.0615C23.7942 12.8229 24 12.456 24 12.0682C24 11.2774 23.3587 10.6364 22.5682 10.6364H10.1591C9.36833 10.6364 8.72729 11.2774 8.72729 12.0682C8.72729 12.456 8.90657 12.8229 9.21322 13.0615Z" fill="white"/>
</g>
<defs>
<clipPath id="clip0_411_210">
<rect width="15.2727" height="15.2727" fill="white" transform="translate(8.72729 8.72726)"/>
</clipPath>
</defs>
</svg>
