<svg width="32" height="32" viewBox="0 0 32 32" fill="none" xmlns="http://www.w3.org/2000/svg">
<rect width="32" height="32" rx="10" fill="#333333"/>
<g clip-path="url(#clip0_411_202)">
<path d="M23.25 19.7212L22.5895 22.5848C22.4967 22.9897 22.1409 23.2729 21.7242 23.2729C14.5568 23.2723 8.72729 17.4428 8.72729 10.2752C8.72729 9.8587 9.01051 9.50245 9.41536 9.41012L12.279 8.74961C12.696 8.65296 13.1222 8.86944 13.2955 9.26438L14.6171 12.3468C14.7716 12.7098 14.6674 13.1328 14.362 13.3823L12.8324 14.6104C13.7977 16.5769 15.3966 18.1757 17.3637 19.1417L18.6159 17.6132C18.8627 17.307 19.2889 17.201 19.652 17.3583L22.7344 18.6796C23.1051 18.8746 23.3466 19.3064 23.25 19.7212Z" fill="white"/>
</g>
<defs>
<clipPath id="clip0_411_202">
<rect width="14.5455" height="14.5455" fill="white" transform="translate(8.72729 8.72726)"/>
</clipPath>
</defs>
</svg>
